# Blender v2.76 (sub 0) OBJ File: 'pine.blend'
# www.blender.org
mtllib pine.mtl
o Cone
v 0.000000 0.000000 -1.000000
v 0.000000 4.000000 -0.000000
v 1.000000 0.000000 0.000000
v -0.000000 0.000000 1.000000
v -1.000000 0.000000 -0.000000
vt 1.792984 -0.925391
vt 0.411707 3.819606
vt 1.134557 -1.191334
vt 0.485083 -1.568132
vt -0.173344 -1.302189
vt -0.822818 -0.925391
vn -0.696300 0.174100 0.696300
vn 0.696300 0.174100 -0.696300
vn -0.696300 0.174100 -0.696300
vn 0.696300 0.174100 0.696300
usemtl Material.001
s off
f 4/1/1 2/2/1 5/3/1
f 1/4/2 2/2/2 3/5/2
f 5/3/3 2/2/3 1/4/3
f 3/5/4 2/2/4 4/6/4
